<svg width="226" height="87" viewBox="0 0 226 87" fill="none" xmlns="http://www.w3.org/2000/svg">
<path opacity="0.49" d="M33.6703 11.5718C36.8222 11.8975 40.643 19.2511 42.9379 21.3429C43.2063 21.5883 43.6944 21.9793 44.3248 21.9738C44.6004 21.9711 44.8711 21.9007 45.1131 21.7687C45.355 21.6366 45.5608 21.447 45.7122 21.2167C46.0938 20.5791 45.7647 19.8561 45.651 19.2619C45.301 17.3734 46.8857 15.185 48.3005 14.2151C51.062 12.3239 54.7097 14.0197 55.8053 14.5288C56.6484 14.9214 59.2879 16.1461 60.471 19.0674C60.7895 19.8539 61.5597 21.7458 60.7211 23.8607C60.2086 25.1588 59.0003 26.7696 57.3155 27.141C56.3036 27.3656 55.8446 26.9843 53.9727 27.331C52.8301 27.5433 52.3956 27.7977 52.0803 28.0883C51.5654 28.5643 51.1051 29.383 51.2603 30.1705C51.3908 30.8432 51.9283 31.2677 52.1428 31.431C56.9157 35.0963 64.7661 39.8149 64.6256 42.9052C64.5918 43.6892 62.1853 45.4249 57.3713 48.899C56.55 49.4908 52.6951 52.2618 52.388 54.6397C52.3535 54.9037 52.2641 55.5968 52.6391 56.2792C53.1368 57.1831 54.1141 57.4521 54.2156 57.4777C55.4446 57.7934 55.9561 56.8741 57.3061 56.7827C59.1056 56.6603 60.5602 58.1361 61.1515 58.7363C61.3978 58.9826 62.9203 60.574 63.1694 63.0241C63.6263 67.5189 59.3633 70.6909 58.5623 71.2871C57.4814 72.0927 56.0198 73.18 53.8954 73.1807C51.4797 73.1815 49.7991 71.6581 49.1027 71.0376C48.3692 70.3853 47.701 69.7913 47.5265 68.8308C47.3202 67.6813 48.0567 67.2413 47.9689 65.9929C47.8889 64.7948 47.0956 63.4468 46.0777 63.0931C45.1904 62.7834 43.9418 63.2536 41.5995 65.5535C36.4805 70.5807 36.754 73.9296 34.2816 74.5113C33.1673 74.7748 30.6533 72.7855 25.6722 68.7936C21.0707 65.107 19.4695 63.5571 19.4022 61.3984C19.3734 60.5004 19.5884 58.836 20.6004 58.3077C21.4279 57.8757 22.0801 58.5739 23.4391 58.2441C24.469 57.9838 25.3539 57.3256 25.8995 56.4139C26.79 54.8614 26.1363 53.1002 25.7746 52.1256C25.4253 51.1862 24.4902 48.6702 21.8655 47.8384C19.9877 47.2448 17.5003 47.5926 16.3777 49.0383C15.5174 50.1458 16.1289 51.0276 15.053 52.6331C14.803 53.0067 13.8119 54.4868 12.4036 54.6523C11.1833 54.7958 10.1647 53.8902 8.49389 52.131C4.58293 48.0134 2.62789 45.9542 2.69464 44.3128C2.72044 43.6744 2.92444 43.5392 6.98482 38.635C8.37951 36.9509 9.92337 35.3823 11.1839 33.5957C12.2439 32.0944 12.9259 30.9005 14.5332 29.8016C15.305 29.2751 16.5952 28.3874 17.6484 28.8541C18.6434 29.2979 18.9828 30.7996 19.0983 31.3126C19.3813 32.5671 18.998 32.9187 19.2864 34.0249C19.3128 34.1255 19.6903 35.4887 20.7363 36.358C22.3455 37.6846 24.8381 37.2538 26.2863 36.6088C29.0892 35.3577 31.0124 31.9428 30.2619 28.9755C30.2082 28.745 29.5009 26.1159 27.5507 25.5082C25.9156 25.0001 24.7295 26.3258 23.5748 25.5757C22.7062 25.0144 22.4647 23.6848 22.6301 22.7373C22.9096 21.1497 24.4215 20.2133 25.09 19.7726C30.8435 15.9803 31.079 11.3016 33.6703 11.5718Z" fill="#EA4F41"/>
<path d="M76.0688 38.9071V28.1471H86.7688V38.9071H83.6488V30.0071L84.3488 30.7071H78.4688L79.1688 30.0071V38.9071H76.0688ZM94.8803 39.0671C93.7203 39.0671 92.6869 38.8337 91.7803 38.3671C90.8736 37.8871 90.1603 37.2271 89.6403 36.3871C89.1336 35.5471 88.8803 34.5937 88.8803 33.5271C88.8803 32.4471 89.1336 31.4937 89.6403 30.6671C90.1603 29.8271 90.8736 29.1737 91.7803 28.7071C92.6869 28.2271 93.7203 27.9871 94.8803 27.9871C96.0136 27.9871 97.0003 28.2271 97.8403 28.7071C98.6803 29.1737 99.3003 29.8471 99.7003 30.7271L97.2803 32.0271C97.0003 31.5204 96.6469 31.1471 96.2203 30.9071C95.8069 30.6671 95.3536 30.5471 94.8603 30.5471C94.3269 30.5471 93.8469 30.6671 93.4203 30.9071C92.9936 31.1471 92.6536 31.4871 92.4003 31.9271C92.1603 32.3671 92.0403 32.9004 92.0403 33.5271C92.0403 34.1537 92.1603 34.6871 92.4003 35.1271C92.6536 35.5671 92.9936 35.9071 93.4203 36.1471C93.8469 36.3871 94.3269 36.5071 94.8603 36.5071C95.3536 36.5071 95.8069 36.3937 96.2203 36.1671C96.6469 35.9271 97.0003 35.5471 97.2803 35.0271L99.7003 36.3471C99.3003 37.2137 98.6803 37.8871 97.8403 38.3671C97.0003 38.8337 96.0136 39.0671 94.8803 39.0671ZM101.596 38.9071V28.1471H104.696V34.5471L109.936 28.1471H112.796V38.9071H109.696V32.5071L104.476 38.9071H101.596ZM114.355 38.9071L119.175 32.5871L119.115 34.3071L114.495 28.1471H117.995L120.915 32.1671L119.595 32.2071L122.615 28.1471H125.935L121.295 34.2471V32.5671L126.095 38.9071H122.555L119.495 34.6271L120.795 34.8071L117.755 38.9071H114.355ZM132.339 39.0671C131.193 39.0671 130.173 38.8271 129.279 38.3471C128.399 37.8671 127.699 37.2137 127.179 36.3871C126.673 35.5471 126.419 34.5937 126.419 33.5271C126.419 32.4471 126.673 31.4937 127.179 30.6671C127.699 29.8271 128.399 29.1737 129.279 28.7071C130.173 28.2271 131.193 27.9871 132.339 27.9871C133.473 27.9871 134.486 28.2271 135.379 28.7071C136.273 29.1737 136.973 29.8204 137.479 30.6471C137.986 31.4737 138.239 32.4337 138.239 33.5271C138.239 34.5937 137.986 35.5471 137.479 36.3871C136.973 37.2137 136.273 37.8671 135.379 38.3471C134.486 38.8271 133.473 39.0671 132.339 39.0671ZM132.339 36.5071C132.859 36.5071 133.326 36.3871 133.739 36.1471C134.153 35.9071 134.479 35.5671 134.719 35.1271C134.959 34.6737 135.079 34.1404 135.079 33.5271C135.079 32.9004 134.959 32.3671 134.719 31.9271C134.479 31.4871 134.153 31.1471 133.739 30.9071C133.326 30.6671 132.859 30.5471 132.339 30.5471C131.819 30.5471 131.353 30.6671 130.939 30.9071C130.526 31.1471 130.193 31.4871 129.939 31.9271C129.699 32.3671 129.579 32.9004 129.579 33.5271C129.579 34.1404 129.699 34.6737 129.939 35.1271C130.193 35.5671 130.526 35.9071 130.939 36.1471C131.353 36.3871 131.819 36.5071 132.339 36.5071ZM138.869 38.8871L139.029 36.3271C139.109 36.3404 139.189 36.3537 139.269 36.3671C139.349 36.3671 139.422 36.3671 139.489 36.3671C139.862 36.3671 140.156 36.2604 140.369 36.0471C140.582 35.8337 140.742 35.5471 140.849 35.1871C140.956 34.8137 141.029 34.3937 141.069 33.9271C141.122 33.4604 141.162 32.9737 141.189 32.4671L141.349 28.1471H150.549V38.9071H147.429V29.9471L148.129 30.7071H143.409L144.069 29.9071L143.929 32.6071C143.889 33.5671 143.809 34.4471 143.689 35.2471C143.582 36.0471 143.402 36.7404 143.149 37.3271C142.896 37.9004 142.556 38.3471 142.129 38.6671C141.702 38.9737 141.156 39.1271 140.489 39.1271C140.249 39.1271 139.996 39.1071 139.729 39.0671C139.462 39.0271 139.176 38.9671 138.869 38.8871ZM158.589 39.0671C157.443 39.0671 156.423 38.8271 155.529 38.3471C154.649 37.8671 153.949 37.2137 153.429 36.3871C152.923 35.5471 152.669 34.5937 152.669 33.5271C152.669 32.4471 152.923 31.4937 153.429 30.6671C153.949 29.8271 154.649 29.1737 155.529 28.7071C156.423 28.2271 157.443 27.9871 158.589 27.9871C159.723 27.9871 160.736 28.2271 161.629 28.7071C162.523 29.1737 163.223 29.8204 163.729 30.6471C164.236 31.4737 164.489 32.4337 164.489 33.5271C164.489 34.5937 164.236 35.5471 163.729 36.3871C163.223 37.2137 162.523 37.8671 161.629 38.3471C160.736 38.8271 159.723 39.0671 158.589 39.0671ZM158.589 36.5071C159.109 36.5071 159.576 36.3871 159.989 36.1471C160.403 35.9071 160.729 35.5671 160.969 35.1271C161.209 34.6737 161.329 34.1404 161.329 33.5271C161.329 32.9004 161.209 32.3671 160.969 31.9271C160.729 31.4871 160.403 31.1471 159.989 30.9071C159.576 30.6671 159.109 30.5471 158.589 30.5471C158.069 30.5471 157.603 30.6671 157.189 30.9071C156.776 31.1471 156.443 31.4871 156.189 31.9271C155.949 32.3671 155.829 32.9004 155.829 33.5271C155.829 34.1404 155.949 34.6737 156.189 35.1271C156.443 35.5671 156.776 35.9071 157.189 36.1471C157.603 36.3871 158.069 36.5071 158.589 36.5071ZM166.635 38.9071V28.1471H175.255V30.7071H169.035L169.735 30.0271V38.9071H166.635ZM176.909 38.9071V28.1471H180.009V34.5471L185.249 28.1471H188.109V38.9071H185.009V32.5071L179.789 38.9071H176.909ZM197.888 38.9071V35.3271L198.328 35.8271H195.348C193.801 35.8271 192.588 35.5071 191.708 34.8671C190.828 34.2271 190.388 33.3071 190.388 32.1071C190.388 30.8271 190.848 29.8471 191.768 29.1671C192.701 28.4871 193.955 28.1471 195.528 28.1471H200.668V38.9071H197.888ZM190.228 38.9071L193.088 34.8071H196.268L193.548 38.9071H190.228ZM197.888 34.3671V29.8871L198.328 30.6871H195.588C194.948 30.6871 194.448 30.8071 194.088 31.0471C193.741 31.2871 193.568 31.6737 193.568 32.2071C193.568 33.2337 194.228 33.7471 195.548 33.7471H198.328L197.888 34.3671ZM76.0688 62.9071V52.1471H86.7688V62.9071H83.6488V54.0071L84.3488 54.7071H78.4688L79.1688 54.0071V62.9071H76.0688ZM96.1003 63.0671C95.1936 63.0671 94.4003 62.8671 93.7203 62.4671C93.0403 62.0671 92.5069 61.4604 92.1203 60.6471C91.7469 59.8204 91.5603 58.7804 91.5603 57.5271C91.5603 56.2604 91.7403 55.2204 92.1003 54.4071C92.4603 53.5937 92.9803 52.9871 93.6603 52.5871C94.3403 52.1871 95.1536 51.9871 96.1003 51.9871C97.1136 51.9871 98.0203 52.2204 98.8203 52.6871C99.6336 53.1404 100.274 53.7804 100.74 54.6071C101.22 55.4337 101.46 56.4071 101.46 57.5271C101.46 58.6604 101.22 59.6404 100.74 60.4671C100.274 61.2937 99.6336 61.9337 98.8203 62.3871C98.0203 62.8404 97.1136 63.0671 96.1003 63.0671ZM89.7403 66.7871V52.1471H92.7203V54.3471L92.6603 57.5471L92.8603 60.7271V66.7871H89.7403ZM95.5603 60.5071C96.0803 60.5071 96.5403 60.3871 96.9403 60.1471C97.3536 59.9071 97.6803 59.5671 97.9203 59.1271C98.1736 58.6737 98.3003 58.1404 98.3003 57.5271C98.3003 56.9004 98.1736 56.3671 97.9203 55.9271C97.6803 55.4871 97.3536 55.1471 96.9403 54.9071C96.5403 54.6671 96.0803 54.5471 95.5603 54.5471C95.0403 54.5471 94.5736 54.6671 94.1603 54.9071C93.7469 55.1471 93.4203 55.4871 93.1803 55.9271C92.9403 56.3671 92.8203 56.9004 92.8203 57.5271C92.8203 58.1404 92.9403 58.6737 93.1803 59.1271C93.4203 59.5671 93.7469 59.9071 94.1603 60.1471C94.5736 60.3871 95.0403 60.5071 95.5603 60.5071ZM108.687 63.0671C107.54 63.0671 106.52 62.8271 105.627 62.3471C104.747 61.8671 104.047 61.2137 103.527 60.3871C103.02 59.5471 102.767 58.5937 102.767 57.5271C102.767 56.4471 103.02 55.4937 103.527 54.6671C104.047 53.8271 104.747 53.1737 105.627 52.7071C106.52 52.2271 107.54 51.9871 108.687 51.9871C109.82 51.9871 110.834 52.2271 111.727 52.7071C112.62 53.1737 113.32 53.8204 113.827 54.6471C114.334 55.4737 114.587 56.4337 114.587 57.5271C114.587 58.5937 114.334 59.5471 113.827 60.3871C113.32 61.2137 112.62 61.8671 111.727 62.3471C110.834 62.8271 109.82 63.0671 108.687 63.0671ZM108.687 60.5071C109.207 60.5071 109.674 60.3871 110.087 60.1471C110.5 59.9071 110.827 59.5671 111.067 59.1271C111.307 58.6737 111.427 58.1404 111.427 57.5271C111.427 56.9004 111.307 56.3671 111.067 55.9271C110.827 55.4871 110.5 55.1471 110.087 54.9071C109.674 54.6671 109.207 54.5471 108.687 54.5471C108.167 54.5471 107.7 54.6671 107.287 54.9071C106.874 55.1471 106.54 55.4871 106.287 55.9271C106.047 56.3671 105.927 56.9004 105.927 57.5271C105.927 58.1404 106.047 58.6737 106.287 59.1271C106.54 59.5671 106.874 59.9071 107.287 60.1471C107.7 60.3871 108.167 60.5071 108.687 60.5071ZM121.853 63.0671C120.693 63.0671 119.66 62.8337 118.753 62.3671C117.846 61.8871 117.133 61.2271 116.613 60.3871C116.106 59.5471 115.853 58.5937 115.853 57.5271C115.853 56.4471 116.106 55.4937 116.613 54.6671C117.133 53.8271 117.846 53.1737 118.753 52.7071C119.66 52.2271 120.693 51.9871 121.853 51.9871C122.986 51.9871 123.973 52.2271 124.813 52.7071C125.653 53.1737 126.273 53.8471 126.673 54.7271L124.253 56.0271C123.973 55.5204 123.62 55.1471 123.193 54.9071C122.78 54.6671 122.326 54.5471 121.833 54.5471C121.3 54.5471 120.82 54.6671 120.393 54.9071C119.966 55.1471 119.626 55.4871 119.373 55.9271C119.133 56.3671 119.013 56.9004 119.013 57.5271C119.013 58.1537 119.133 58.6871 119.373 59.1271C119.626 59.5671 119.966 59.9071 120.393 60.1471C120.82 60.3871 121.3 60.5071 121.833 60.5071C122.326 60.5071 122.78 60.3937 123.193 60.1671C123.62 59.9271 123.973 59.5471 124.253 59.0271L126.673 60.3471C126.273 61.2137 125.653 61.8871 124.813 62.3671C123.973 62.8337 122.986 63.0671 121.853 63.0671ZM130.849 62.9071V53.9871L131.549 54.7071H127.209V52.1471H137.589V54.7071H133.249L133.949 53.9871V62.9071H130.849ZM143.843 63.0671C142.697 63.0671 141.677 62.8271 140.783 62.3471C139.903 61.8671 139.203 61.2137 138.683 60.3871C138.177 59.5471 137.923 58.5937 137.923 57.5271C137.923 56.4471 138.177 55.4937 138.683 54.6671C139.203 53.8271 139.903 53.1737 140.783 52.7071C141.677 52.2271 142.697 51.9871 143.843 51.9871C144.977 51.9871 145.99 52.2271 146.883 52.7071C147.777 53.1737 148.477 53.8204 148.983 54.6471C149.49 55.4737 149.743 56.4337 149.743 57.5271C149.743 58.5937 149.49 59.5471 148.983 60.3871C148.477 61.2137 147.777 61.8671 146.883 62.3471C145.99 62.8271 144.977 63.0671 143.843 63.0671ZM143.843 60.5071C144.363 60.5071 144.83 60.3871 145.243 60.1471C145.657 59.9071 145.983 59.5671 146.223 59.1271C146.463 58.6737 146.583 58.1404 146.583 57.5271C146.583 56.9004 146.463 56.3671 146.223 55.9271C145.983 55.4871 145.657 55.1471 145.243 54.9071C144.83 54.6671 144.363 54.5471 143.843 54.5471C143.323 54.5471 142.857 54.6671 142.443 54.9071C142.03 55.1471 141.697 55.4871 141.443 55.9271C141.203 56.3671 141.083 56.9004 141.083 57.5271C141.083 58.1404 141.203 58.6737 141.443 59.1271C141.697 59.5671 142.03 59.9071 142.443 60.1471C142.857 60.3871 143.323 60.5071 143.843 60.5071Z" fill="#620000"/>
</svg>
