<svg width="23" height="23" viewBox="0 0 23 23" fill="none" xmlns="http://www.w3.org/2000/svg">
<path fill-rule="evenodd" clip-rule="evenodd" d="M8.69054 0.60093C6.56387 0.818263 4.59246 1.7588 3.0654 3.28461C2.00553 4.34366 1.28947 5.49882 0.833011 6.886C0.226806 8.72822 0.226806 10.6414 0.833011 12.4836C1.29154 13.8771 2.01005 15.0338 3.07427 16.0917C5.17518 18.18 8.04048 19.1273 10.9953 18.7104C12.5159 18.4959 14.0404 17.8697 15.2365 16.9684C15.3657 16.8711 15.485 16.7966 15.5017 16.8029C15.5183 16.8092 16.8233 18.0841 18.4015 19.636C20.1976 21.4021 21.3312 22.4854 21.4319 22.5319C21.8552 22.7275 22.3287 22.4775 22.4166 22.012C22.485 21.65 22.7249 21.909 18.0059 17.2509L16.53 15.7941L16.7822 15.5019C17.8569 14.2563 18.5696 12.6806 18.8385 10.9556C18.9433 10.2832 18.9439 9.04959 18.8398 8.37088C18.5362 6.39214 17.6691 4.69837 16.2237 3.26019C14.2449 1.29131 11.4814 0.315748 8.69054 0.60093ZM10.7528 2.04097C12.4954 2.29716 14.0234 3.05504 15.2327 4.26315C16.7163 5.74527 17.4857 7.59663 17.4857 9.68479C17.4857 10.4545 17.4192 10.9852 17.2388 11.6551C16.3245 15.0497 13.2271 17.3959 9.65982 17.3959C7.53633 17.3959 5.56358 16.5882 4.09149 15.1161C3.09155 14.1161 2.42124 12.9618 2.06244 11.6217C1.74374 10.4312 1.74374 8.9384 2.06244 7.74792C2.78452 5.05089 4.92666 2.92546 7.62581 2.22793C8.60706 1.97437 9.81021 1.90243 10.7528 2.04097Z" fill="#8E0000"/>
</svg>
