<svg width="226" height="86" viewBox="0 0 226 86" fill="none" xmlns="http://www.w3.org/2000/svg">
<path d="M33.4702 10.6338C36.6222 10.9595 40.4429 18.3131 42.7379 20.4049C43.0062 20.6502 43.4943 21.0412 44.1248 21.0357C44.4003 21.0331 44.671 20.9627 44.913 20.8306C45.1549 20.6986 45.3607 20.509 45.5121 20.2786C45.8937 19.641 45.5646 18.918 45.4509 18.3238C45.101 16.4354 46.6856 14.247 48.1004 13.277C50.8619 11.3858 54.5097 13.0817 55.6052 13.5908C56.4483 13.9834 59.0879 15.2081 60.2709 18.1293C60.5894 18.9159 61.3596 20.8078 60.5211 22.9227C60.0085 24.2207 58.8002 25.8316 57.1154 26.2029C56.1035 26.4275 55.6445 26.0462 53.7726 26.3929C52.63 26.6052 52.1955 26.8596 51.8802 27.1502C51.3653 27.6263 50.9051 28.4449 51.0602 29.2324C51.1907 29.9052 51.7283 30.3297 51.9428 30.493C56.7156 34.1583 64.566 38.8768 64.4255 41.9671C64.3917 42.7512 61.9852 44.4869 57.1712 47.961C56.3499 48.5528 52.495 51.3238 52.1879 53.7016C52.1534 53.9656 52.064 54.6587 52.439 55.3411C52.9367 56.2451 53.914 56.5141 54.0156 56.5396C55.2445 56.8553 55.756 55.9361 57.106 55.8447C58.9055 55.7223 60.3601 57.1981 60.9515 57.7983C61.1977 58.0445 62.7203 59.636 62.9694 62.086C63.4262 66.5809 59.1633 69.7528 58.3623 70.3491C57.2813 71.1546 55.8197 72.242 53.6954 72.2427C51.2797 72.2434 49.5991 70.72 48.9026 70.0996C48.1691 69.4473 47.5009 68.8533 47.3264 67.8927C47.1202 66.7432 47.8567 66.3033 47.7688 65.0548C47.6888 63.8567 46.8955 62.5087 45.8776 62.155C44.9903 61.8454 43.7417 62.3155 41.3995 64.6154C36.2804 69.6427 36.5539 72.9915 34.0815 73.5733C32.9672 73.8368 30.4532 71.8474 25.4721 67.8555C20.8706 64.169 19.2694 62.6191 19.2021 60.4603C19.1733 59.5624 19.3884 57.898 20.4004 57.3697C21.2278 56.9376 21.8801 57.6358 23.239 57.3061C24.2689 57.0457 25.1538 56.3875 25.6994 55.4759C26.5899 53.9234 25.9362 52.1622 25.5745 51.1875C25.2252 50.2482 24.2901 47.7321 21.6654 46.9004C19.7876 46.3067 17.3003 46.6545 16.1776 48.1002C15.3173 49.2077 15.9289 50.0896 14.8529 51.6951C14.603 52.0686 13.6118 53.5487 12.2035 53.7143C10.9833 53.8577 9.96465 52.9521 8.29382 51.193C4.38286 47.0754 2.42782 45.0161 2.49456 43.3747C2.52037 42.7363 2.72437 42.6012 6.78475 37.697C8.17943 36.0128 9.7233 34.4442 10.9838 32.6577C12.0438 31.1563 12.7258 29.9624 14.3331 28.8635C15.1049 28.3371 16.3952 27.4493 17.4484 27.916C18.4433 28.3598 18.7827 29.8616 18.8982 30.3745C19.1813 31.6291 18.798 31.9806 19.0863 33.0868C19.1128 33.1875 19.4902 34.5506 20.5362 35.42C22.1454 36.7465 24.638 36.3157 26.0863 35.6707C28.8891 34.4196 30.8123 31.0047 30.0619 28.0374C30.0081 27.807 29.3008 25.1778 27.3506 24.5701C25.7156 24.0621 24.5294 25.3877 23.3747 24.6376C22.5061 24.0763 22.2646 22.7467 22.43 21.7993C22.7095 20.2117 24.2214 19.2753 24.8899 18.8345C30.6434 15.0423 30.8789 10.3635 33.4702 10.6338Z" fill="#F5938C"/>
<path d="M75.8688 37.969V27.209H86.5688V37.969H83.4488V29.069L84.1488 29.769H78.2688L78.9688 29.069V37.969H75.8688ZM94.6802 38.129C93.5202 38.129 92.4868 37.8957 91.5802 37.429C90.6735 36.949 89.9602 36.289 89.4402 35.449C88.9335 34.609 88.6802 33.6557 88.6802 32.589C88.6802 31.509 88.9335 30.5557 89.4402 29.729C89.9602 28.889 90.6735 28.2357 91.5802 27.769C92.4868 27.289 93.5202 27.049 94.6802 27.049C95.8135 27.049 96.8002 27.289 97.6402 27.769C98.4802 28.2357 99.1002 28.909 99.5002 29.789L97.0802 31.089C96.8002 30.5824 96.4468 30.209 96.0202 29.969C95.6068 29.729 95.1535 29.609 94.6602 29.609C94.1268 29.609 93.6468 29.729 93.2202 29.969C92.7935 30.209 92.4535 30.549 92.2002 30.989C91.9602 31.429 91.8402 31.9624 91.8402 32.589C91.8402 33.2157 91.9602 33.749 92.2002 34.189C92.4535 34.629 92.7935 34.969 93.2202 35.209C93.6468 35.449 94.1268 35.569 94.6602 35.569C95.1535 35.569 95.6068 35.4557 96.0202 35.229C96.4468 34.989 96.8002 34.609 97.0802 34.089L99.5002 35.409C99.1002 36.2757 98.4802 36.949 97.6402 37.429C96.8002 37.8957 95.8135 38.129 94.6802 38.129ZM101.396 37.969V27.209H104.496V33.609L109.736 27.209H112.596V37.969H109.496V31.569L104.276 37.969H101.396ZM114.155 37.969L118.975 31.649L118.915 33.369L114.295 27.209H117.795L120.715 31.229L119.395 31.269L122.415 27.209H125.735L121.095 33.309V31.629L125.895 37.969H122.355L119.295 33.689L120.595 33.869L117.555 37.969H114.155ZM132.139 38.129C130.993 38.129 129.973 37.889 129.079 37.409C128.199 36.929 127.499 36.2757 126.979 35.449C126.473 34.609 126.219 33.6557 126.219 32.589C126.219 31.509 126.473 30.5557 126.979 29.729C127.499 28.889 128.199 28.2357 129.079 27.769C129.973 27.289 130.993 27.049 132.139 27.049C133.273 27.049 134.286 27.289 135.179 27.769C136.073 28.2357 136.773 28.8824 137.279 29.709C137.786 30.5357 138.039 31.4957 138.039 32.589C138.039 33.6557 137.786 34.609 137.279 35.449C136.773 36.2757 136.073 36.929 135.179 37.409C134.286 37.889 133.273 38.129 132.139 38.129ZM132.139 35.569C132.659 35.569 133.126 35.449 133.539 35.209C133.953 34.969 134.279 34.629 134.519 34.189C134.759 33.7357 134.879 33.2024 134.879 32.589C134.879 31.9624 134.759 31.429 134.519 30.989C134.279 30.549 133.953 30.209 133.539 29.969C133.126 29.729 132.659 29.609 132.139 29.609C131.619 29.609 131.153 29.729 130.739 29.969C130.326 30.209 129.993 30.549 129.739 30.989C129.499 31.429 129.379 31.9624 129.379 32.589C129.379 33.2024 129.499 33.7357 129.739 34.189C129.993 34.629 130.326 34.969 130.739 35.209C131.153 35.449 131.619 35.569 132.139 35.569ZM138.669 37.949L138.829 35.389C138.909 35.4024 138.989 35.4157 139.069 35.429C139.149 35.429 139.222 35.429 139.289 35.429C139.662 35.429 139.956 35.3224 140.169 35.109C140.382 34.8957 140.542 34.609 140.649 34.249C140.756 33.8757 140.829 33.4557 140.869 32.989C140.922 32.5224 140.962 32.0357 140.989 31.529L141.149 27.209H150.349V37.969H147.229V29.009L147.929 29.769H143.209L143.869 28.969L143.729 31.669C143.689 32.629 143.609 33.509 143.489 34.309C143.382 35.109 143.202 35.8024 142.949 36.389C142.696 36.9624 142.356 37.409 141.929 37.729C141.502 38.0357 140.956 38.189 140.289 38.189C140.049 38.189 139.796 38.169 139.529 38.129C139.262 38.089 138.976 38.029 138.669 37.949ZM158.389 38.129C157.243 38.129 156.223 37.889 155.329 37.409C154.449 36.929 153.749 36.2757 153.229 35.449C152.723 34.609 152.469 33.6557 152.469 32.589C152.469 31.509 152.723 30.5557 153.229 29.729C153.749 28.889 154.449 28.2357 155.329 27.769C156.223 27.289 157.243 27.049 158.389 27.049C159.523 27.049 160.536 27.289 161.429 27.769C162.323 28.2357 163.023 28.8824 163.529 29.709C164.036 30.5357 164.289 31.4957 164.289 32.589C164.289 33.6557 164.036 34.609 163.529 35.449C163.023 36.2757 162.323 36.929 161.429 37.409C160.536 37.889 159.523 38.129 158.389 38.129ZM158.389 35.569C158.909 35.569 159.376 35.449 159.789 35.209C160.203 34.969 160.529 34.629 160.769 34.189C161.009 33.7357 161.129 33.2024 161.129 32.589C161.129 31.9624 161.009 31.429 160.769 30.989C160.529 30.549 160.203 30.209 159.789 29.969C159.376 29.729 158.909 29.609 158.389 29.609C157.869 29.609 157.403 29.729 156.989 29.969C156.576 30.209 156.243 30.549 155.989 30.989C155.749 31.429 155.629 31.9624 155.629 32.589C155.629 33.2024 155.749 33.7357 155.989 34.189C156.243 34.629 156.576 34.969 156.989 35.209C157.403 35.449 157.869 35.569 158.389 35.569ZM166.435 37.969V27.209H175.055V29.769H168.835L169.535 29.089V37.969H166.435ZM176.709 37.969V27.209H179.809V33.609L185.049 27.209H187.909V37.969H184.809V31.569L179.589 37.969H176.709ZM197.688 37.969V34.389L198.128 34.889H195.148C193.601 34.889 192.388 34.569 191.508 33.929C190.628 33.289 190.188 32.369 190.188 31.169C190.188 29.889 190.648 28.909 191.568 28.229C192.501 27.549 193.755 27.209 195.328 27.209H200.468V37.969H197.688ZM190.028 37.969L192.888 33.869H196.068L193.348 37.969H190.028ZM197.688 33.429V28.949L198.128 29.749H195.388C194.748 29.749 194.248 29.869 193.888 30.109C193.541 30.349 193.368 30.7357 193.368 31.269C193.368 32.2957 194.028 32.809 195.348 32.809H198.128L197.688 33.429ZM75.8688 61.969V51.209H86.5688V61.969H83.4488V53.069L84.1488 53.769H78.2688L78.9688 53.069V61.969H75.8688ZM95.9002 62.129C94.9935 62.129 94.2002 61.929 93.5202 61.529C92.8402 61.129 92.3068 60.5224 91.9202 59.709C91.5468 58.8824 91.3602 57.8424 91.3602 56.589C91.3602 55.3224 91.5402 54.2824 91.9002 53.469C92.2602 52.6557 92.7802 52.049 93.4602 51.649C94.1402 51.249 94.9535 51.049 95.9002 51.049C96.9135 51.049 97.8202 51.2824 98.6202 51.749C99.4335 52.2024 100.074 52.8424 100.54 53.669C101.02 54.4957 101.26 55.469 101.26 56.589C101.26 57.7224 101.02 58.7024 100.54 59.529C100.074 60.3557 99.4335 60.9957 98.6202 61.449C97.8202 61.9024 96.9135 62.129 95.9002 62.129ZM89.5402 65.849V51.209H92.5202V53.409L92.4602 56.609L92.6602 59.789V65.849H89.5402ZM95.3602 59.569C95.8802 59.569 96.3402 59.449 96.7402 59.209C97.1535 58.969 97.4802 58.629 97.7202 58.189C97.9735 57.7357 98.1002 57.2024 98.1002 56.589C98.1002 55.9624 97.9735 55.429 97.7202 54.989C97.4802 54.549 97.1535 54.209 96.7402 53.969C96.3402 53.729 95.8802 53.609 95.3602 53.609C94.8402 53.609 94.3735 53.729 93.9602 53.969C93.5468 54.209 93.2202 54.549 92.9802 54.989C92.7402 55.429 92.6202 55.9624 92.6202 56.589C92.6202 57.2024 92.7402 57.7357 92.9802 58.189C93.2202 58.629 93.5468 58.969 93.9602 59.209C94.3735 59.449 94.8402 59.569 95.3602 59.569ZM108.487 62.129C107.34 62.129 106.32 61.889 105.427 61.409C104.547 60.929 103.847 60.2757 103.327 59.449C102.82 58.609 102.567 57.6557 102.567 56.589C102.567 55.509 102.82 54.5557 103.327 53.729C103.847 52.889 104.547 52.2357 105.427 51.769C106.32 51.289 107.34 51.049 108.487 51.049C109.62 51.049 110.634 51.289 111.527 51.769C112.42 52.2357 113.12 52.8824 113.627 53.709C114.134 54.5357 114.387 55.4957 114.387 56.589C114.387 57.6557 114.134 58.609 113.627 59.449C113.12 60.2757 112.42 60.929 111.527 61.409C110.634 61.889 109.62 62.129 108.487 62.129ZM108.487 59.569C109.007 59.569 109.474 59.449 109.887 59.209C110.3 58.969 110.627 58.629 110.867 58.189C111.107 57.7357 111.227 57.2024 111.227 56.589C111.227 55.9624 111.107 55.429 110.867 54.989C110.627 54.549 110.3 54.209 109.887 53.969C109.474 53.729 109.007 53.609 108.487 53.609C107.967 53.609 107.5 53.729 107.087 53.969C106.674 54.209 106.34 54.549 106.087 54.989C105.847 55.429 105.727 55.9624 105.727 56.589C105.727 57.2024 105.847 57.7357 106.087 58.189C106.34 58.629 106.674 58.969 107.087 59.209C107.5 59.449 107.967 59.569 108.487 59.569ZM121.653 62.129C120.493 62.129 119.46 61.8957 118.553 61.429C117.646 60.949 116.933 60.289 116.413 59.449C115.906 58.609 115.653 57.6557 115.653 56.589C115.653 55.509 115.906 54.5557 116.413 53.729C116.933 52.889 117.646 52.2357 118.553 51.769C119.46 51.289 120.493 51.049 121.653 51.049C122.786 51.049 123.773 51.289 124.613 51.769C125.453 52.2357 126.073 52.909 126.473 53.789L124.053 55.089C123.773 54.5824 123.42 54.209 122.993 53.969C122.58 53.729 122.126 53.609 121.633 53.609C121.1 53.609 120.62 53.729 120.193 53.969C119.766 54.209 119.426 54.549 119.173 54.989C118.933 55.429 118.813 55.9624 118.813 56.589C118.813 57.2157 118.933 57.749 119.173 58.189C119.426 58.629 119.766 58.969 120.193 59.209C120.62 59.449 121.1 59.569 121.633 59.569C122.126 59.569 122.58 59.4557 122.993 59.229C123.42 58.989 123.773 58.609 124.053 58.089L126.473 59.409C126.073 60.2757 125.453 60.949 124.613 61.429C123.773 61.8957 122.786 62.129 121.653 62.129ZM130.649 61.969V53.049L131.349 53.769H127.009V51.209H137.389V53.769H133.049L133.749 53.049V61.969H130.649ZM143.643 62.129C142.496 62.129 141.476 61.889 140.583 61.409C139.703 60.929 139.003 60.2757 138.483 59.449C137.976 58.609 137.723 57.6557 137.723 56.589C137.723 55.509 137.976 54.5557 138.483 53.729C139.003 52.889 139.703 52.2357 140.583 51.769C141.476 51.289 142.496 51.049 143.643 51.049C144.776 51.049 145.79 51.289 146.683 51.769C147.576 52.2357 148.276 52.8824 148.783 53.709C149.29 54.5357 149.543 55.4957 149.543 56.589C149.543 57.6557 149.29 58.609 148.783 59.449C148.276 60.2757 147.576 60.929 146.683 61.409C145.79 61.889 144.776 62.129 143.643 62.129ZM143.643 59.569C144.163 59.569 144.63 59.449 145.043 59.209C145.456 58.969 145.783 58.629 146.023 58.189C146.263 57.7357 146.383 57.2024 146.383 56.589C146.383 55.9624 146.263 55.429 146.023 54.989C145.783 54.549 145.456 54.209 145.043 53.969C144.63 53.729 144.163 53.609 143.643 53.609C143.123 53.609 142.656 53.729 142.243 53.969C141.83 54.209 141.496 54.549 141.243 54.989C141.003 55.429 140.883 55.9624 140.883 56.589C140.883 57.2024 141.003 57.7357 141.243 58.189C141.496 58.629 141.83 58.969 142.243 59.209C142.656 59.449 143.123 59.569 143.643 59.569Z" fill="#620000"/>
</svg>
